<svg width="100%" height="100%" viewBox="0 0 24 24" version="1.1" xmlns="http://www.w3.org/2000/svg" xmlns:xlink="http://www.w3.org/1999/xlink" xml:space="preserve" xmlnsserif="http://www.serif.com/" style="fill-rule:evenodd;clip-rule:evenodd;stroke-linejoin:round;stroke-miterlimit:2;">
    <g transform="matrix(0.375,0,0,0.375,12,12)">
        <g id="_353420-behance-logo_107508.svg" serifid="353420-behance-logo_107508.svg" transform="matrix(1,0,0,1,-32,-32)">
            <g transform="matrix(1,0,0,1,-7.174,-7.174)">
                <g transform="matrix(1.28897,0,0,1.28897,-2.07308,-2.07308)">
                    <path d="M28.068,27.86C28.068,25.96 26.775,25.96 26.775,25.96L21.454,25.96L21.454,30.038L26.445,30.038C27.308,30.038 28.068,29.763 28.068,27.86Z" style="fill-rule:nonzero;"/>
                </g>
                <g transform="matrix(1.28897,0,0,1.28897,-2.07308,-2.07308)">
                    <path d="M40.394,30.038C37.572,30.038 37.179,32.854 37.179,32.854L43.182,32.854C43.182,32.854 43.219,30.038 40.394,30.038Z" style="fill-rule:nonzero;"/>
                </g>
                <g transform="matrix(1.28897,0,0,1.28897,-2.07308,-2.07308)">
                    <path d="M26.775,32.854L21.457,32.854L21.457,37.738L26.168,37.738C26.248,37.738 26.366,37.742 26.507,37.738C27.264,37.721 28.703,37.503 28.703,35.364C28.703,32.83 26.775,32.854 26.775,32.854Z" style="fill-rule:nonzero;"/>
                </g>
                <g transform="matrix(1.28897,0,0,1.28897,-2.07308,-2.07308)">
                    <path d="M32,7.174C18.311,7.174 7.174,18.311 7.174,32C7.174,45.689 18.311,56.826 32,56.826C45.689,56.826 56.826,45.689 56.826,32C56.826,18.311 45.689,7.174 32,7.174ZM36.392,23.789L43.932,23.789L43.932,26.04L36.392,26.04L36.392,23.789ZM32.581,35.593C32.581,41.17 26.775,40.987 26.775,40.987L17.267,40.987L17.267,22.712L26.775,22.712C29.666,22.712 31.947,24.309 31.947,27.579C31.947,30.848 29.159,31.056 29.159,31.056C32.834,31.056 32.581,35.593 32.581,35.593ZM46.685,35.293L37.215,35.293C37.215,38.689 40.431,38.474 40.431,38.474C43.468,38.474 43.361,36.509 43.361,36.509L46.579,36.509C46.579,41.726 40.325,41.368 40.325,41.368C32.822,41.368 33.304,34.383 33.304,34.383C33.304,34.383 33.298,27.361 40.325,27.361C47.722,27.361 46.684,35.293 46.685,35.293Z" style="fill-rule:nonzero;"/>
                </g>
            </g>
        </g>
        <g id="_353420-behance-logo_107508.svg1" serifid="353420-behance-logo_107508.svg">
        </g>
    </g>
</svg>
