<svg viewBox="0 0 24 24" version="1.1" xmlns="http://www.w3.org/2000/svg" xmlns:xlink="http://www.w3.org/1999/xlink" xml:space="preserve" xmlnsserif="http://www.serif.com/" style="fill-rule:evenodd;clip-rule:evenodd;stroke-linejoin:round;stroke-miterlimit:2;">
    <g id="head" transform="matrix(0.0448645,0,0,0.0448645,-7.91986,-0.145791)">
        <g id="head1" serifId="head" transform="matrix(23.3917,0,0,23.3917,163.3,-9.97917)">
            <path d="M16.256,4.473C16.555,4.192 17.7,3.589 18.692,3.145C20.25,2.448 21.023,2.75 21.023,2.75C21.169,3.174 21.484,4.103 21.551,5.026C21.598,5.663 21.619,6.509 21.292,7.161C22.64,8.532 23.434,10.342 23.434,12.581C23.434,20.813 18.311,21.315 12,21.315C5.689,21.315 0.566,20.024 0.566,12.581C0.566,10.458 1.298,8.789 2.461,7.509C2.273,7.063 2.04,6.009 2.107,5.019C2.189,3.811 2.671,2.692 2.671,2.692C3.118,2.661 3.819,2.768 4.51,2.982C5.698,3.35 6.965,4 7.566,4.579C9.04,4.166 10.579,3.979 12,3.979C13.504,3.979 14.94,4.144 16.256,4.473ZM19.38,12.349C17.82,10.778 14.114,11.597 12.171,11.579C9.78,11.558 6.544,10.671 4.712,12.447C3.42,13.699 2.931,16.067 4.358,18.236C5.519,20 8.593,20.483 12.171,20.483C15.054,20.483 18.206,20.472 19.686,18.663C20.721,17.398 21.319,14.301 19.38,12.349Z"/>
        </g>
        <g id="eyes">
            <g transform="matrix(0.625164,0,0,0.624261,347.537,134.81)">
                <g id="right">
                    <ellipse id="inner" cx="342.761" cy="347.722" rx="44.612" ry="64.359"/>
                </g>
            </g>
            <g transform="matrix(0.625164,0,0,0.624261,123.561,134.81)">
                <g id="left">
                    <ellipse id="inner1" serifId="inner" cx="342.761" cy="347.722" rx="44.612" ry="64.359"/>
                </g>
            </g>
        </g>
    </g>
</svg>
