<?xml version="1.0" encoding="UTF-8" standalone="no"?>
<!DOCTYPE svg PUBLIC "-//W3C//DTD SVG 1.1//EN" "http://www.w3.org/Graphics/SVG/1.1/DTD/svg11.dtd">
<svg width="100%" height="100%" viewBox="0 0 500 500" version="1.1" xmlns="http://www.w3.org/2000/svg" xmlnsxlink="http://www.w3.org/1999/xlink" xmlspace="preserve" xmlnsserif="http://www.serif.com/" style="fill-rule:evenodd;clip-rule:evenodd;stroke-linecap:round;stroke-linejoin:round;stroke-miterlimit:1.5;">
    <g id="octocat" transform="matrix(0.558682,0,0,0.558682,1.23286,27.7116)">
        <g id="body">
            <g id="legs" transform="matrix(1.02812,0,0,1,-24.5751,12.4987)">
                <path d="M552.421,499.187C546.596,489.787 530.289,470.718 520.415,470.117C504.434,469.143 432.83,468.566 421.686,468.886C397.711,469.574 380.332,473.803 367.602,499.367C364.384,505.828 356.312,522.169 355.867,542.538C355.17,574.438 355.105,615.153 355.254,630.83C355.477,654.17 358.4,662.955 346.413,682.707C340.143,693.038 328.231,692.332 324.655,699.662C322.011,705.084 322.816,709.285 328.293,710.835C337.772,713.52 350.618,710.846 359.673,708.317C369.113,705.68 380.715,700.787 387.05,692.137C396.762,678.877 396.106,671.707 396.32,656.014C396.617,634.144 396.998,603.138 396.533,581.272C396.024,557.359 400.923,540.83 408.286,534.995C409.613,533.943 410.061,534.514 410.061,534.514C410.061,534.514 409.027,615.822 410.441,659.845C411.08,679.769 407.821,683.533 405.844,693.996C403.815,704.735 387.36,715.152 389.98,725.427C391.914,733.008 407.427,728.787 413.666,726.576C422.969,723.278 432.508,717.322 438.487,709.843C457.32,686.282 453.805,667.763 453.814,638.24C453.816,631.647 453.601,530.43 453.601,530.43L465.266,529.995C465.266,529.995 465.547,559.725 465.545,562.098C465.532,580.28 465.506,597.867 465.765,616.64C466.024,635.394 465.422,653.191 466.537,671.913C467.729,691.95 473.519,701.245 484.731,713.802C491.248,721.102 502.455,725.285 509.66,728.125C515.778,730.537 528.789,733.086 529.762,724.366C530.827,714.826 522.936,711.414 519.518,705.326C514.706,696.757 510.258,685.232 510.132,676.033C509.548,633.376 508.791,605.507 509.586,571.486C509.846,560.341 509.209,535.882 509.372,535.462C509.549,535.005 513.667,539.081 515.749,542.328C517.607,545.225 520.394,553.237 521.074,558.221C522.942,571.921 522.836,626.883 522.909,642.864C523.035,670.358 518.549,684.112 544.076,701.017C550.201,705.073 557.092,708.499 564.326,709.585C576.931,711.477 578.399,712.009 589.709,710.756C596.199,710.037 596.921,703.43 594.783,700.465C588.892,692.291 585.817,695.703 577.729,687.405C565.105,674.454 564.204,662.132 564.077,649.175C563.782,619.11 565.045,582.588 564.562,563.857C564.01,542.479 564.156,518.123 552.421,499.187Z"/>
            </g>
            <g id="hand" transform="matrix(4.27143,0,0,1,-1155.11,-0.457093)">
                <path d="M351.917,537.03C351.123,534.266 346.32,555.439 336.22,547.193C327.068,539.721 325.278,504.486 321.006,488.194C315.745,468.134 308.118,464.272 307.476,476.23C306.871,487.474 312.69,493.329 315.964,512.325C318.592,527.575 321.115,556.307 321.698,559.951C322.534,565.179 325.192,587.802 333.298,597.648C341.131,607.163 352.007,595.749 352.73,593.23C355.397,583.945 354.583,546.315 351.917,537.03Z"/>
            </g>
        </g>
        <g id="head">
            <path id="head1" serifid="head" d="M543.545,94.651C550.561,88.09 577.334,73.97 600.545,63.588C636.977,47.293 655.074,54.348 655.074,54.348C658.488,64.261 665.845,85.99 667.421,107.596C668.507,122.496 669.016,142.287 661.367,157.538C692.896,189.601 711.472,231.929 711.472,284.314C711.472,476.867 591.622,488.615 444,488.615C296.379,488.615 176.528,458.421 176.528,284.314C176.528,234.656 193.667,195.61 220.865,165.659C216.46,155.243 211.025,130.583 212.59,107.431C214.501,79.161 225.786,53 225.786,53C236.245,52.268 252.633,54.763 268.801,59.769C296.597,68.375 326.213,83.579 340.275,97.123C374.76,87.462 410.767,83.085 444,83.085C479.179,83.085 512.78,86.956 543.545,94.651Z"/>
            <path id="face" d="M616.637,278.882C580.141,242.144 493.447,261.294 448,260.883C392.08,260.378 316.372,239.63 273.53,281.167C243.309,310.468 231.868,365.847 265.246,416.581C292.396,457.85 364.295,469.147 448,469.147C515.427,469.147 589.169,468.891 623.779,426.58C647.992,396.98 661.999,324.543 616.637,278.882Z" style="fill:rgb(244,202,177);"/>
            <path id="mouth" d="M424.631,429.482C424.631,429.482 430.172,444.608 446.328,444.608C460.928,444.608 467.289,429.422 467.289,429.422" style="fill:none;stroke:rgb(172,92,81);stroke-width:14.32px;"/>
            <g id="nose" transform="matrix(1.2439,0,0,1.2439,-114.319,-103.883)">
                <circle cx="450.716" cy="408.627" r="8.396" style="fill:rgb(172,92,81);"/>
            </g>
            <g id="eyes">
                <g id="right" transform="matrix(1,0,0,1,223.976,0)">
                    <g id="outer" transform="matrix(0.940574,0,0,0.933239,15.1581,26.9626)">
                        <ellipse cx="342.761" cy="347.722" rx="44.612" ry="64.359" style="fill:white;"/>
                    </g>
                    <g id="inner" transform="matrix(0.625164,0,0,0.624261,123.561,134.81)">
                        <ellipse cx="342.761" cy="347.722" rx="44.612" ry="64.359" style="fill:rgb(172,92,81);"/>
                    </g>
                </g>
                <g id="left">
                    <g id="outer1" serifid="outer" transform="matrix(0.940574,0,0,0.933239,15.1581,26.9626)">
                        <ellipse cx="342.761" cy="347.722" rx="44.612" ry="64.359" style="fill:white;"/>
                    </g>
                    <g id="inner1" serifid="inner" transform="matrix(0.625164,0,0,0.624261,123.561,134.81)">
                        <ellipse cx="342.761" cy="347.722" rx="44.612" ry="64.359" style="fill:rgb(172,92,81);"/>
                    </g>
                </g>
            </g>
            <g id="whiskers">
                <path id="top-right" serifid="top right" d="M693.468,372.628C693.468,372.628 766.221,369.832 803.515,372.561C865.1,377.069 892.756,388.851 892.756,388.851" style="fill:none;stroke:black;stroke-width:8.95px;"/>
                <g id="bottom-right" serifid="bottom right" transform="matrix(1,0,0,1,-5.9422,21.0263)">
                    <path d="M693.468,372.628C693.468,372.628 770.298,372.913 812.849,379.985C873.763,390.11 898.699,399.511 898.699,399.511" style="fill:none;stroke:black;stroke-width:8.95px;"/>
                </g>
                <g id="bottom-left" serifid="bottom left" transform="matrix(0.955136,-0.296167,0.296167,0.955136,-772.717,278.353)">
                    <path d="M699.759,365.842C699.759,365.842 762.167,368.102 804.545,376.144C860.845,386.829 898.699,399.511 898.699,399.511" style="fill:none;stroke:black;stroke-width:8.95px;"/>
                </g>
                <g id="top-left" serifid="top left" transform="matrix(0.970555,-0.240881,0.240881,0.970555,-764.486,198.83)">
                    <path d="M699.759,365.842C699.759,365.842 739.991,368.188 782.452,375.778C827.643,383.856 898.094,401.947 898.094,401.947" style="fill:none;stroke:black;stroke-width:8.95px;"/>
                </g>
            </g>
        </g>
    </g>
</svg>
